<svg id="svg" xmlns="http://www.w3.org/2000/svg" xmlns:xlink="http://www.w3.org/1999/xlink" width="400" height="400" viewBox="0, 0, 400,400"><g id="svgg"><path id="path0" d="M334.274 33.254 C 330.515 34.411,329.419 35.442,320.881 45.859 C 296.590 75.492,256.664 99.697,214.844 110.143 C 190.616 116.194,186.170 116.549,126.563 117.184 C 70.673 117.779,71.839 117.693,60.071 122.122 C -8.616 147.978,-15.831 240.478,48.052 276.204 C 58.224 281.892,75.256 286.719,85.156 286.719 C 89.263 286.719,89.814 287.787,89.835 295.796 C 89.913 324.976,119.209 375.074,133.833 371.036 C 136.943 370.177,137.705 369.375,150.279 353.714 C 162.575 338.398,162.790 337.459,155.803 329.542 C 146.041 318.480,139.063 301.664,139.063 289.201 L 139.062 286.501 159.961 286.955 C 228.891 288.450,285.815 314.228,323.604 361.060 C 333.339 373.124,344.748 374.894,351.811 365.437 C 357.363 358.004,369.531 275.269,369.531 244.958 C 369.531 237.368,369.950 236.540,374.869 234.413 C 401.540 222.879,401.506 181.807,374.815 169.259 C 369.605 166.809,369.799 167.339,369.174 153.906 C 367.493 117.808,357.244 46.226,352.781 39.414 C 348.915 33.515,341.472 31.037,334.274 33.254 M327.270 106.670 C 335.594 169.066,334.947 265.187,325.923 306.750 L 325.391 309.203 319.141 304.168 C 282.447 274.603,230.214 254.070,184.119 251.090 L 175.781 250.551 175.781 201.950 L 175.781 153.349 183.008 152.811 C 232.810 149.100,281.841 129.537,321.850 97.413 C 326.106 93.996,325.424 92.831,327.270 106.670 M138.281 202.012 L 138.281 250.118 109.570 249.813 C 77.828 249.476,77.426 249.421,67.108 244.029 C 31.486 225.416,33.843 173.503,71.019 157.877 C 79.252 154.417,83.220 154.034,111.523 153.968 L 138.281 153.906 138.281 202.012 " stroke="none" fill="#000000" fill-rule="evenodd"></path></g></svg>