<svg id="Capa_1" enable-background="new 0 0 482.224 482.224" height="512" viewBox="0 0 482.224 482.224" width="512" xmlns="http://www.w3.org/2000/svg"><path d="m361.672 482.224c-3.347 0-6.677-.975-9.553-2.893l-150.667-100.444h-80.9c-9.52 0-17.223-7.703-17.223-17.223v-241.119c0-9.52 7.703-17.223 17.223-17.223h80.9l150.666-100.444c5.264-3.498 12.11-3.835 17.677-.858 5.601 2.994 9.099 8.83 9.099 15.188v447.793c0 6.358-3.498 12.194-9.099 15.188-2.539 1.362-5.331 2.035-8.123 2.035zm-223.897-137.783h68.891c3.397 0 6.728 1.009 9.553 2.893l128.229 85.492v-383.442l-128.228 85.492c-2.826 1.884-6.156 2.893-9.553 2.893h-68.891v206.672z"/></svg>